<svg width="8.586914" height="11.772949" viewBox="0 0 8.58691 11.7729" fill="none" xmlns="http://www.w3.org/2000/svg" xmlns:xlink="http://www.w3.org/1999/xlink">
	<desc>
			Created with Pixso.
	</desc>
	<defs/>
	<path id="B" d="M0 0L0 11.77L4.06 11.77Q5.36 11.77 6.38 11.4Q7.26 11.08 7.81 10.48Q7.91 10.37 8 10.26Q8.04 10.2 8.08 10.14Q8.58 9.4 8.58 8.31Q8.58 7.24 8.06 6.58Q8 6.5 7.94 6.43Q7.72 6.19 7.45 6Q6.96 5.66 6.33 5.52L6.33 5.45Q6.66 5.33 6.93 5.13Q7.29 4.87 7.54 4.45Q7.79 4.02 7.89 3.56Q7.97 3.23 7.97 2.9Q7.97 1.86 7.46 1.23Q7.44 1.2 7.42 1.18Q7.38 1.13 7.34 1.09Q6.8 0.52 5.93 0.27Q4.98 0 3.76 0L0 0ZM3.58 4.86L2.08 4.86L2.08 1.62L3.61 1.62Q4.76 1.62 5.34 1.98Q5.49 2.07 5.61 2.2Q5.92 2.57 5.92 3.2Q5.92 3.63 5.74 3.96Q5.6 4.21 5.36 4.41Q4.8 4.86 3.58 4.86ZM3.85 10.15L2.08 10.15L2.08 6.42L3.85 6.42Q5.18 6.42 5.86 6.85Q6.1 6.99 6.25 7.2Q6.55 7.59 6.55 8.2Q6.55 8.86 6.23 9.3Q6.08 9.51 5.84 9.67Q5.14 10.15 3.85 10.15Z" fill="#FFFFFF" fill-opacity="1.000000" fill-rule="evenodd"/>
</svg>
